<svg width="18" height="18" viewBox="0 0 18 18" fill="none" xmlns="http://www.w3.org/2000/svg">
<rect width="18" height="18" fill="#F5F5F5"/>
<g id="&#235;&#166;&#172;&#236;&#138;&#164;&#237;&#138;&#184;&#235;&#139;&#172;&#236;&#132;&#177;3" clip-path="url(#clip0_78_4)">
<rect width="393" height="852" transform="translate(-161 -751)" fill="#FBFEFD"/>
<g id="Frame 236">
<g id="Frame 240">
<g id="Frame 15" filter="url(#filter0_d_78_4)">
<rect x="-140" y="-482" width="351" height="516" rx="20" fill="white" shape-rendering="crispEdges"/>
<rect x="-139.5" y="-481.5" width="350" height="515" rx="19.5" stroke="#6FBC89" shape-rendering="crispEdges"/>
<g id="&#235;&#178;&#132;&#237;&#138;&#188;/&#235;&#139;&#172;&#236;&#132;&#177;">
<g id="mage:trophy">
<g id="Group">
<path id="Vector" d="M11.3101 2.06424H6.69005C6.30154 2.04538 5.92126 2.18049 5.63173 2.44025C5.3422 2.70001 5.16679 3.06346 5.14355 3.45174V8.00949C5.15796 8.75919 5.37682 9.49072 5.77651 10.1251C6.1762 10.7596 6.74155 11.2728 7.41155 11.6095C7.90082 11.869 8.44622 12.0047 9.00005 12.0047C9.55389 12.0047 10.0993 11.869 10.5886 11.6095C11.2586 11.2728 11.8239 10.7596 12.2236 10.1251C12.6233 9.49072 12.8421 8.75919 12.8566 8.00949V3.45174C12.8333 3.06346 12.6579 2.70001 12.3684 2.44025C12.0789 2.18049 11.6986 2.04538 11.3101 2.06424Z" stroke="#6FBC89" stroke-width="1.5" stroke-linecap="round"/>
<path id="Vector_2" d="M12.8565 3.4526H14.397C14.7844 3.43557 15.1629 3.5715 15.451 3.83107C15.739 4.09064 15.9135 4.45304 15.9367 4.8401C15.9346 5.70995 15.7099 6.56479 15.2842 7.32335C14.8387 8.10769 14.2165 8.7774 13.467 9.27935L12.8565 9.6956L12.2602 10.0563M5.14348 3.4526H3.60298C3.2156 3.43557 2.83705 3.5715 2.549 3.83107C2.26095 4.09064 2.08648 4.45304 2.06323 4.8401C2.06548 5.7101 2.28973 6.5651 2.71573 7.32335C3.16128 8.10769 3.78349 8.7774 4.53298 9.27935L5.14348 9.6956L5.73973 10.0563M7.46023 13.8573V11.6306M10.5397 13.8573V11.6306M6.60748 13.8573H11.3925C11.5848 13.8572 11.7753 13.8949 11.953 13.9684C12.1307 14.0419 12.2921 14.1497 12.4281 14.2857C12.5641 14.4217 12.6719 14.5832 12.7454 14.7609C12.8189 14.9386 12.8567 15.129 12.8565 15.3213V15.5711C12.8565 15.6686 12.8178 15.762 12.7488 15.831C12.6799 15.8999 12.5865 15.9386 12.489 15.9386H5.51098C5.41352 15.9386 5.32004 15.8999 5.25112 15.831C5.1822 15.762 5.14348 15.6686 5.14348 15.5711V15.3213C5.14329 15.1291 5.18099 14.9387 5.25445 14.761C5.32791 14.5834 5.43567 14.4219 5.57157 14.286C5.70748 14.15 5.86886 14.0422 6.04648 13.9686C6.2241 13.8951 6.41448 13.8573 6.60673 13.8573H6.60748Z" stroke="#6FBC89" stroke-width="1.5" stroke-linecap="round"/>
</g>
</g>
</g>
</g>
</g>
</g>
</g>
<defs>
<filter id="filter0_d_78_4" x="-142" y="-483" width="355" height="586" filterUnits="userSpaceOnUse" color-interpolation-filters="sRGB">
<feFlood flood-opacity="0" result="BackgroundImageFix"/>
<feColorMatrix in="SourceAlpha" type="matrix" values="0 0 0 0 0 0 0 0 0 0 0 0 0 0 0 0 0 0 127 0" result="hardAlpha"/>
<feOffset dy="1"/>
<feGaussianBlur stdDeviation="1"/>
<feComposite in2="hardAlpha" operator="out"/>
<feColorMatrix type="matrix" values="0 0 0 0 0 0 0 0 0 0 0 0 0 0 0 0 0 0 0.25 0"/>
<feBlend mode="normal" in2="BackgroundImageFix" result="effect1_dropShadow_78_4"/>
<feBlend mode="normal" in="SourceGraphic" in2="effect1_dropShadow_78_4" result="shape"/>
</filter>
<clipPath id="clip0_78_4">
<rect width="393" height="852" fill="white" transform="translate(-161 -751)"/>
</clipPath>
</defs>
</svg>
