<svg width="27" height="27" viewBox="0 0 27 27" fill="none" xmlns="http://www.w3.org/2000/svg">
<g id="&#236;&#149;&#132;&#236;&#157;&#180;&#236;&#189;&#152;/&#235;&#146;&#164;&#235;&#161;&#156;&#234;&#176;&#128;&#234;&#184;&#176;">
<path id="Vector" d="M4.90909 13H23.0909C23.332 13 23.5632 13.1054 23.7337 13.2929C23.9042 13.4804 24 13.7348 24 14C24 14.2652 23.9042 14.5196 23.7337 14.7071C23.5632 14.8946 23.332 15 23.0909 15H4.90909C4.66799 15 4.43675 14.8946 4.26627 14.7071C4.09578 14.5196 4 14.2652 4 14C4 13.7348 4.09578 13.4804 4.26627 13.2929C4.43675 13.1054 4.66799 13 4.90909 13Z" fill="#4A4A4A"/>
<path id="Vector_2" d="M5.19556 14L12.7335 21.4619C12.9041 21.6308 13 21.86 13 22.099C13 22.3379 12.9041 22.5671 12.7335 22.7361C12.5628 22.9051 12.3314 23 12.09 23C11.8487 23 11.6172 22.9051 11.4466 22.7361L3.26701 14.6371C3.18237 14.5535 3.11522 14.4542 3.0694 14.3449C3.02358 14.2356 3 14.1184 3 14C3 13.8816 3.02358 13.7644 3.0694 13.6551C3.11522 13.5458 3.18237 13.4465 3.26701 13.3629L11.4466 5.2639C11.6172 5.09493 11.8487 5 12.09 5C12.3314 5 12.5628 5.09493 12.7335 5.2639C12.9041 5.43288 13 5.66206 13 5.90102C13 6.13999 12.9041 6.36917 12.7335 6.53814L5.19556 14Z" fill="#4A4A4A"/>
</g>
</svg>
