<svg width="13" height="13" viewBox="0 0 13 13" fill="none" xmlns="http://www.w3.org/2000/svg">
<path d="M6.49992 1.08301C9.49154 1.08301 11.9166 3.50805 11.9166 6.49967C11.9166 9.4913 9.49154 11.9163 6.49992 11.9163C3.50829 11.9163 1.08325 9.4913 1.08325 6.49967C1.08325 3.50805 3.50829 1.08301 6.49992 1.08301ZM6.49992 2.16634C5.35065 2.16634 4.24845 2.62289 3.43579 3.43555C2.62313 4.2482 2.16659 5.3504 2.16659 6.49967C2.16659 7.64895 2.62313 8.75115 3.43579 9.5638C4.24845 10.3765 5.35065 10.833 6.49992 10.833C7.64919 10.833 8.75139 10.3765 9.56405 9.5638C10.3767 8.75115 10.8333 7.64895 10.8333 6.49967C10.8333 5.3504 10.3767 4.2482 9.56405 3.43555C8.75139 2.62289 7.64919 2.16634 6.49992 2.16634ZM6.49992 8.12467C6.64358 8.12467 6.78135 8.18174 6.88294 8.28333C6.98452 8.38491 7.04159 8.52268 7.04159 8.66634C7.04159 8.81 6.98452 8.94778 6.88294 9.04936C6.78135 9.15094 6.64358 9.20801 6.49992 9.20801C6.35626 9.20801 6.21848 9.15094 6.1169 9.04936C6.01532 8.94778 5.95825 8.81 5.95825 8.66634C5.95825 8.52268 6.01532 8.38491 6.1169 8.28333C6.21848 8.18174 6.35626 8.12467 6.49992 8.12467ZM6.49992 3.24967C6.64358 3.24967 6.78135 3.30674 6.88294 3.40833C6.98452 3.50991 7.04159 3.64768 7.04159 3.79134V7.04134C7.04159 7.185 6.98452 7.32278 6.88294 7.42436C6.78135 7.52594 6.64358 7.58301 6.49992 7.58301C6.35626 7.58301 6.21848 7.52594 6.1169 7.42436C6.01532 7.32278 5.95825 7.185 5.95825 7.04134V3.79134C5.95825 3.64768 6.01532 3.50991 6.1169 3.40833C6.21848 3.30674 6.35626 3.24967 6.49992 3.24967Z" fill="#E2725B"/>
</svg>
