<svg width="13" height="13" viewBox="0 0 13 13" fill="none" xmlns="http://www.w3.org/2000/svg">
<path d="M4.25998 4.01074C4.22695 4.179 4.18711 4.3416 4.10441 4.49323C4.07917 4.53951 4.3177 4.34232 4.3434 4.32414C4.38391 4.29547 4.42389 4.26604 4.46515 4.23846C4.50343 4.21287 4.55659 4.14502 4.58915 4.17759C4.61613 4.20456 4.49483 4.35008 4.48882 4.35796C4.40011 4.47409 4.23737 4.5995 4.17881 4.73335C4.17663 4.73834 4.38679 4.60117 4.39976 4.59244C4.43755 4.56699 4.85493 4.28301 4.90029 4.37374C4.92434 4.42184 4.87824 4.54328 4.86647 4.57891C4.81339 4.73958 4.73928 4.89151 4.67032 5.04562C4.65018 5.09064 4.58066 5.20765 4.62523 5.18653C4.7035 5.14946 4.78337 5.07456 4.8552 5.02984C5.03672 4.91681 5.33983 4.69693 5.56879 4.71081C5.63671 4.71492 5.5299 4.84261 5.49551 4.90132C5.35672 5.13829 5.19797 5.36049 5.02881 5.57658C4.91226 5.72546 4.77402 5.86737 4.67032 6.02638C4.6635 6.03685 4.65121 6.05016 4.65679 6.06133C4.68098 6.1097 4.75823 6.02327 4.80672 5.99933C5.15075 5.82947 5.49393 5.6585 5.84498 5.50331C6.0304 5.42134 6.34291 5.24494 6.56308 5.2305C6.59398 5.22847 6.56949 5.2961 6.55406 5.32294C6.43593 5.5285 6.27624 5.71428 6.11779 5.88885C5.82512 6.21131 5.50793 6.50718 5.17987 6.79296C5.01715 6.9347 4.78158 7.08709 4.65228 7.26869C4.61119 7.32639 4.80006 7.28295 4.86422 7.2529C5.35565 7.02277 5.81486 6.7186 6.28915 6.45702C7.06608 6.02851 7.86021 5.63743 8.66553 5.26545C8.94482 5.13644 9.73545 4.73336 9.54033 4.97122C9.45541 5.07473 8.87701 5.58866 8.85041 5.61153C8.24105 6.13549 7.60022 6.61658 6.94524 7.08155C6.51723 7.3854 6.05462 7.66499 5.65334 8.00595C5.62473 8.03026 5.58255 8.05313 5.57894 8.0905C5.57671 8.11346 5.62628 8.08682 5.64658 8.07585C5.71974 8.03629 5.78875 7.98917 5.85626 7.94057C6.27204 7.6412 6.65052 7.28529 7.03317 6.94627C7.4416 6.58442 7.87993 6.23128 8.24391 5.82234C8.30657 5.75195 8.42937 5.57025 8.33635 5.55517C8.18437 5.53052 7.86729 5.76949 7.78509 5.82009C6.95464 6.33133 6.15167 6.88725 5.31063 7.38142C5.23259 7.42727 5.15333 7.47103 5.0739 7.51444C5.0162 7.54597 4.87111 7.64647 4.88902 7.58321C4.90069 7.54197 4.93169 7.50869 4.95666 7.47386C5.03124 7.36982 5.43927 6.84343 5.46846 6.80649C5.908 6.25032 6.36312 5.70758 6.83251 5.17639C6.94703 5.04679 7.06299 4.91845 7.17973 4.79085C7.2366 4.72867 7.29464 4.66756 7.35333 4.60709C7.36907 4.59088 7.39776 4.53887 7.40293 4.56087C7.409 4.58664 7.37307 4.6046 7.35784 4.62626C7.1281 4.95291 7.41865 4.53491 7.08616 5.0118C6.83607 5.3705 6.58888 5.7311 6.33198 6.085C6.10221 6.40155 6.08142 6.4231 5.86302 6.71405C5.82593 6.76345 5.78774 6.81208 5.75254 6.86285C5.69796 6.9416 5.73095 6.91377 5.78411 6.86849C6.04955 6.64237 6.29763 6.39809 6.56647 6.17519C7.16666 5.67755 7.79293 5.21765 8.44908 4.79648C8.76972 4.59067 9.11548 4.36619 9.46592 4.2069C9.48021 4.2004 9.50244 4.18553 9.51214 4.19788C9.55266 4.24944 9.43167 4.30199 9.38476 4.34781C8.53701 5.17584 7.53155 5.86059 6.51686 6.46378C6.05506 6.73831 5.80384 6.8698 5.34784 7.1041C5.2162 7.17174 4.81575 7.35581 4.95891 7.31829C5.0842 7.28545 5.22442 7.20556 5.35798 7.21909C5.51244 7.23473 5.33909 7.48433 5.31965 7.5167C5.04614 7.97212 4.66959 8.36153 4.31634 8.75449C4.3008 8.77178 4.18195 8.86046 4.25998 8.86046" stroke="white" stroke-width="3" stroke-linecap="round"/>
<path d="M7.99345 7.52121C7.99345 7.88635 7.98971 8.44465 8.31248 8.6925C8.55951 8.88218 8.55562 8.39876 8.51427 8.28102C8.32864 7.75249 7.45221 7.76033 7.06793 8.03527C6.96076 8.11194 6.74592 8.32227 6.8729 8.47041C7.00222 8.62129 7.25538 8.56114 7.41852 8.53129C7.59752 8.49853 7.81534 8.4641 7.96189 8.34528C8.16012 8.18455 8.02342 7.92737 7.88072 7.77824C7.67771 7.56609 7.38887 7.46418 7.09836 7.46485C6.82866 7.46547 6.2538 7.59289 6.46256 7.98905C6.69409 8.42843 7.31185 8.60063 7.75446 8.69024C7.81779 8.70306 9.01104 8.91088 8.95393 8.62373C8.93547 8.53093 8.78153 8.38213 8.72846 8.33965C8.45922 8.1241 8.12952 7.98444 7.79955 7.89435C7.33199 7.76671 6.85076 7.74666 6.37012 7.72413" stroke="white" stroke-width="3" stroke-linecap="round"/>
<path d="M8.19625 3.80762C7.67438 3.83787 7.14917 3.88032 6.63379 3.96995" stroke="white" stroke-width="3" stroke-linecap="round"/>
<path d="M6.5 0C5.21442 0 3.95771 0.381218 2.8888 1.09545C1.81988 1.80968 0.986755 2.82484 0.494786 4.01256C0.00281635 5.20028 -0.125905 6.50721 0.124899 7.76809C0.375702 9.02896 0.994767 10.1872 1.90381 11.0962C2.81285 12.0052 3.97104 12.6243 5.23191 12.8751C6.49279 13.1259 7.79972 12.9972 8.98744 12.5052C10.1752 12.0132 11.1903 11.1801 11.9046 10.1112C12.6188 9.04228 13 7.78558 13 6.5C12.9982 4.77665 12.3128 3.12441 11.0942 1.90582C9.87559 0.687224 8.22335 0.00181989 6.5 0ZM8.85375 8.14625C8.90021 8.1927 8.93706 8.24785 8.9622 8.30855C8.98734 8.36925 9.00028 8.4343 9.00028 8.5C9.00028 8.5657 8.98734 8.63075 8.9622 8.69145C8.93706 8.75214 8.90021 8.80729 8.85375 8.85375C8.8073 8.9002 8.75215 8.93705 8.69145 8.9622C8.63075 8.98734 8.5657 9.00028 8.5 9.00028C8.4343 9.00028 8.36925 8.98734 8.30855 8.9622C8.24786 8.93705 8.19271 8.9002 8.14625 8.85375L6.5 7.20687L4.85375 8.85375C4.8073 8.9002 4.75215 8.93705 4.69145 8.9622C4.63075 8.98734 4.5657 9.00028 4.5 9.00028C4.4343 9.00028 4.36925 8.98734 4.30855 8.9622C4.24786 8.93705 4.19271 8.9002 4.14625 8.85375C4.0998 8.80729 4.06295 8.75214 4.03781 8.69145C4.01266 8.63075 3.99972 8.5657 3.99972 8.5C3.99972 8.4343 4.01266 8.36925 4.03781 8.30855C4.06295 8.24785 4.0998 8.1927 4.14625 8.14625L5.79313 6.5L4.14625 4.85375C4.05243 4.75993 3.99972 4.63268 3.99972 4.5C3.99972 4.36732 4.05243 4.24007 4.14625 4.14625C4.24007 4.05243 4.36732 3.99972 4.5 3.99972C4.63268 3.99972 4.75993 4.05243 4.85375 4.14625L6.5 5.79312L8.14625 4.14625C8.19271 4.09979 8.24786 4.06294 8.30855 4.0378C8.36925 4.01266 8.4343 3.99972 8.5 3.99972C8.5657 3.99972 8.63075 4.01266 8.69145 4.0378C8.75215 4.06294 8.8073 4.09979 8.85375 4.14625C8.90021 4.1927 8.93706 4.24785 8.9622 4.30855C8.98734 4.36925 9.00028 4.4343 9.00028 4.5C9.00028 4.5657 8.98734 4.63075 8.9622 4.69145C8.93706 4.75214 8.90021 4.80729 8.85375 4.85375L7.20688 6.5L8.85375 8.14625Z" fill="#6FBC89"/>
</svg>
