<svg width="15" height="15" viewBox="0 0 15 15" fill="none" xmlns="http://www.w3.org/2000/svg">
<path d="M7.39375 5.625L9.375 7.6V7.5C9.375 7.00272 9.17746 6.52581 8.82583 6.17417C8.4742 5.82254 7.99728 5.625 7.5 5.625H7.39375ZM4.70625 6.125L5.675 7.09375C5.64375 7.225 5.625 7.35625 5.625 7.5C5.625 7.99728 5.82254 8.4742 6.17418 8.82583C6.52581 9.17746 7.00272 9.375 7.5 9.375C7.6375 9.375 7.775 9.35625 7.90625 9.325L8.875 10.2938C8.45625 10.5 7.99375 10.625 7.5 10.625C6.6712 10.625 5.87634 10.2958 5.29029 9.70971C4.70424 9.12366 4.375 8.3288 4.375 7.5C4.375 7.00625 4.5 6.54375 4.70625 6.125ZM1.25 2.66875L2.675 4.09375L2.95625 4.375C1.925 5.1875 1.1125 6.25 0.625 7.5C1.70625 10.2438 4.375 12.1875 7.5 12.1875C8.46875 12.1875 9.39375 12 10.2375 11.6625L10.5063 11.925L12.3313 13.75L13.125 12.9563L2.04375 1.875M7.5 4.375C8.3288 4.375 9.12366 4.70424 9.70971 5.29029C10.2958 5.87634 10.625 6.6712 10.625 7.5C10.625 7.9 10.5438 8.2875 10.4 8.6375L12.2313 10.4688C13.1688 9.6875 13.9188 8.6625 14.375 7.5C13.2938 4.75625 10.625 2.8125 7.5 2.8125C6.625 2.8125 5.7875 2.96875 5 3.25L6.35625 4.59375C6.7125 4.45625 7.09375 4.375 7.5 4.375Z" fill="#4FAE6E"/>
</svg>
