<svg width="17" height="17" viewBox="0 0 17 17" fill="none" xmlns="http://www.w3.org/2000/svg">
<path fill-rule="evenodd" clip-rule="evenodd" d="M12.6841 3.49124C12.7578 3.41687 12.8924 3.35949 13.0659 3.36374C13.2153 3.36272 13.3597 3.41725 13.4711 3.51674C13.5632 3.60883 13.6283 3.75758 13.6347 3.92404C13.6411 4.09049 13.5887 4.21658 13.5164 4.28883L8.21102 9.60133L7.30931 9.68349L7.38014 8.80162L12.6841 3.49124ZM14.2233 2.76591C13.9138 2.45566 13.4888 2.31045 13.09 2.30124C12.6912 2.29204 12.2528 2.41954 11.9319 2.74041L6.49047 8.18891C6.40135 8.27812 6.34687 8.39613 6.33677 8.52183L6.19935 10.2268C6.19314 10.304 6.20389 10.3816 6.23083 10.4542C6.25777 10.5268 6.30026 10.5926 6.35533 10.6471C6.41039 10.7016 6.4767 10.7433 6.5496 10.7695C6.6225 10.7956 6.70023 10.8055 6.77735 10.7984L8.4986 10.6426C8.62264 10.6311 8.73872 10.5765 8.82656 10.4882L14.268 5.03966C14.591 4.71666 14.7121 4.27962 14.6965 3.88154C14.6832 3.46372 14.5145 3.0659 14.2233 2.76591ZM4.11685 3.36374C3.63588 3.36505 3.17498 3.55665 2.83482 3.89667C2.49466 4.2367 2.30289 4.69753 2.30139 5.17849V12.8816C2.3027 13.3627 2.49439 13.8237 2.83457 14.1639C3.17475 14.5041 3.63576 14.6958 4.11685 14.6971H11.82C12.3009 14.6958 12.7618 14.5042 13.102 14.1641C13.4422 13.8241 13.6339 13.3633 13.6354 12.8823V9.03041C13.6354 8.88951 13.5795 8.75439 13.4798 8.65476C13.3802 8.55513 13.2451 8.49916 13.1042 8.49916C12.9633 8.49916 12.8282 8.55513 12.7285 8.65476C12.6289 8.75439 12.5729 8.88951 12.5729 9.03041V12.8823C12.5729 13.2946 12.2329 13.6346 11.82 13.6346H4.11685C3.70389 13.6346 3.36389 13.2946 3.36389 12.8823V5.17849C3.36389 4.76624 3.70389 4.42624 4.11685 4.42624H7.96806C8.10895 4.42624 8.24408 4.37027 8.34371 4.27065C8.44334 4.17102 8.49931 4.03589 8.49931 3.89499C8.49931 3.7541 8.44334 3.61897 8.34371 3.51934C8.24408 3.41972 8.10895 3.36374 7.96806 3.36374H4.11685Z" fill="#979797"/>
</svg>
