<svg width="22" height="22" viewBox="0 0 22 22" fill="none" xmlns="http://www.w3.org/2000/svg">
<path d="M11 18.0083C9.76162 17.1365 8.32796 16.581 6.82462 16.394C5.7584 16.1774 4.67212 16.0751 3.58421 16.0888C3.445 16.09 3.30694 16.0636 3.17798 16.0112C3.04902 15.9587 2.93173 15.8813 2.83287 15.7833C2.734 15.6853 2.65553 15.5686 2.60199 15.4402C2.54844 15.3117 2.52087 15.1738 2.52087 15.0346L2.54012 5.04936C2.53954 4.78144 2.64099 4.52335 2.82386 4.32754C3.00673 4.13173 3.25729 4.0129 3.52462 3.99519C4.63209 3.97318 5.73865 4.07215 6.82462 4.29036C8.32633 4.4841 9.75888 5.03825 11 5.90553M11 18.0083V5.90553M11 18.0083C12.2385 17.1365 13.6721 16.581 15.1755 16.394C16.2417 16.1774 17.328 16.0751 18.4159 16.0888C18.5551 16.09 18.6931 16.0636 18.8221 16.0112C18.9511 15.9587 19.0684 15.8813 19.1672 15.7833C19.2661 15.6853 19.3445 15.5686 19.3981 15.4402C19.4516 15.3117 19.4792 15.1738 19.4792 15.0346L19.459 5.04936C19.4596 4.78159 19.3583 4.52362 19.1756 4.32784C18.993 4.13205 18.7426 4.01312 18.4755 3.99519C17.368 3.97318 16.2614 4.07215 15.1755 4.29036C13.6738 4.4841 12.2412 5.03825 11 5.90553" stroke="#7A7A7A" stroke-width="1.5" stroke-linecap="round" stroke-linejoin="round"/>
</svg>
