<svg width="15" height="15" viewBox="0 0 15 15" fill="none" xmlns="http://www.w3.org/2000/svg">
<path d="M8.23587 6.76348L6.47081 8.52834M11.9354 2.6637C11.9913 2.64444 12.0514 2.64127 12.1089 2.65455C12.1665 2.66784 12.2191 2.69704 12.2609 2.73883C12.3026 2.78062 12.3317 2.8333 12.3449 2.89086C12.3581 2.94842 12.3549 3.00853 12.3355 3.06433L8.85011 13.024C8.82926 13.0836 8.79099 13.1355 8.74027 13.173C8.68956 13.2105 8.62874 13.2319 8.5657 13.2345C8.50266 13.237 8.44031 13.2205 8.38674 13.1872C8.33318 13.1539 8.29086 13.1052 8.26529 13.0476L6.37138 8.78718C6.33952 8.71634 6.28279 8.65962 6.21194 8.62776L1.95109 6.73347C1.8936 6.70781 1.84514 6.6655 1.81195 6.61201C1.77876 6.55852 1.76237 6.49631 1.7649 6.43342C1.76744 6.37052 1.78878 6.30983 1.82616 6.25918C1.86355 6.20853 1.91526 6.17026 1.97462 6.1493L11.9354 2.6637Z" stroke="#979797" stroke-linecap="round" stroke-linejoin="round"/>
</svg>
