<svg width="6" height="11" viewBox="0 0 6 11" fill="none" xmlns="http://www.w3.org/2000/svg">
<g id="&#236;&#149;&#132;&#236;&#157;&#180;&#236;&#189;&#152;/&#236;&#153;&#188;&#236;&#170;&#189;">
<path id="SF Symbol / chevron.backward" d="M0 5.5C0 5.71702 0.0763957 5.90304 0.24094 6.06426L4.81293 10.7892C4.94221 10.9256 5.10676 11 5.30069 11C5.68854 11 6 10.6776 6 10.2621C6 10.0575 5.91773 9.87768 5.78844 9.73506L1.66895 5.5L5.78844 1.26494C5.91773 1.12232 6 0.936302 6 0.73788C6 0.322435 5.68854 0 5.30069 0C5.10676 0 4.94221 0.0744081 4.81293 0.210823L0.24094 4.92954C0.0763957 5.09696 0 5.28298 0 5.5Z" fill="#7A7A7A"/>
</g>
</svg>
