<svg width="17" height="17" viewBox="0 0 17 17" fill="none" xmlns="http://www.w3.org/2000/svg">
<path d="M9.33405 7.66592L7.33365 9.6661M13.5269 3.01951C13.5902 2.99768 13.6583 2.99409 13.7235 3.00914C13.7887 3.0242 13.8484 3.0573 13.8957 3.10466C13.943 3.15202 13.976 3.21173 13.991 3.27696C14.0059 3.34219 14.0022 3.41032 13.9803 3.47355L10.0302 14.7612C10.0066 14.8287 9.96319 14.8875 9.90571 14.93C9.84823 14.9726 9.7793 14.9968 9.70785 14.9997C9.63641 15.0026 9.56575 14.9839 9.50504 14.9462C9.44433 14.9084 9.39638 14.8532 9.36739 14.7879L7.22097 9.95946C7.18485 9.87917 7.12057 9.81489 7.04026 9.77878L2.2113 7.63192C2.14615 7.60284 2.09122 7.55489 2.0536 7.49426C2.01599 7.43364 1.99742 7.36314 2.00029 7.29185C2.00316 7.22057 2.02734 7.15179 2.06971 7.09439C2.11208 7.03699 2.17069 6.99361 2.23797 6.96986L13.5269 3.01951Z" stroke="#979797" stroke-linecap="round" stroke-linejoin="round"/>
</svg>
