<svg width="17" height="17" viewBox="0 0 17 17" fill="none" xmlns="http://www.w3.org/2000/svg">
<path d="M7 4.1875H9.5C9.5 3.85598 9.3683 3.53804 9.13388 3.30362C8.89946 3.0692 8.58152 2.9375 8.25 2.9375C7.91848 2.9375 7.60054 3.0692 7.36612 3.30362C7.1317 3.53804 7 3.85598 7 4.1875ZM6.0625 4.1875C6.0625 3.90023 6.11908 3.61578 6.22901 3.35038C6.33895 3.08498 6.50008 2.84383 6.7032 2.6407C6.90633 2.43758 7.14748 2.27645 7.41288 2.16651C7.67828 2.05658 7.96273 2 8.25 2C8.53727 2 8.82172 2.05658 9.08712 2.16651C9.35252 2.27645 9.59367 2.43758 9.7968 2.6407C9.99992 2.84383 10.1611 3.08498 10.271 3.35038C10.3809 3.61578 10.4375 3.90023 10.4375 4.1875H14.0313C14.1556 4.1875 14.2748 4.23689 14.3627 4.32479C14.4506 4.4127 14.5 4.53193 14.5 4.65625C14.5 4.78057 14.4506 4.8998 14.3627 4.98771C14.2748 5.07561 14.1556 5.125 14.0313 5.125H13.2063L12.475 12.6944C12.4189 13.2744 12.1488 13.8127 11.7173 14.2043C11.2858 14.5959 10.7239 14.8127 10.1413 14.8125H6.35875C5.77617 14.8126 5.21444 14.5957 4.78309 14.2041C4.35175 13.8125 4.08171 13.2743 4.02563 12.6944L3.29375 5.125H2.46875C2.34443 5.125 2.2252 5.07561 2.13729 4.98771C2.04939 4.8998 2 4.78057 2 4.65625C2 4.53193 2.04939 4.4127 2.13729 4.32479C2.2252 4.23689 2.34443 4.1875 2.46875 4.1875H6.0625ZM7.3125 7.15625C7.3125 7.03193 7.26311 6.9127 7.17521 6.82479C7.0873 6.73689 6.96807 6.6875 6.84375 6.6875C6.71943 6.6875 6.6002 6.73689 6.51229 6.82479C6.42439 6.9127 6.375 7.03193 6.375 7.15625V11.8438C6.375 11.9681 6.42439 12.0873 6.51229 12.1752C6.6002 12.2631 6.71943 12.3125 6.84375 12.3125C6.96807 12.3125 7.0873 12.2631 7.17521 12.1752C7.26311 12.0873 7.3125 11.9681 7.3125 11.8438V7.15625ZM9.65625 6.6875C9.78057 6.6875 9.8998 6.73689 9.98771 6.82479C10.0756 6.9127 10.125 7.03193 10.125 7.15625V11.8438C10.125 11.9681 10.0756 12.0873 9.98771 12.1752C9.8998 12.2631 9.78057 12.3125 9.65625 12.3125C9.53193 12.3125 9.4127 12.2631 9.32479 12.1752C9.23689 12.0873 9.1875 11.9681 9.1875 11.8438V7.15625C9.1875 7.03193 9.23689 6.9127 9.32479 6.82479C9.4127 6.73689 9.53193 6.6875 9.65625 6.6875ZM4.95875 12.6044C4.99246 12.9523 5.15453 13.2752 5.41336 13.5101C5.67218 13.745 6.00922 13.8751 6.35875 13.875H10.1413C10.4908 13.8751 10.8278 13.745 11.0866 13.5101C11.3455 13.2752 11.5075 12.9523 11.5413 12.6044L12.265 5.125H4.235L4.95875 12.6044Z" fill="#979797"/>
</svg>
