<svg width="17" height="17" viewBox="0 0 17 17" fill="none" xmlns="http://www.w3.org/2000/svg">
<path fill-rule="evenodd" clip-rule="evenodd" d="M12.684 3.49124C12.7577 3.41687 12.8923 3.35949 13.0658 3.36374C13.2152 3.36272 13.3596 3.41725 13.471 3.51674C13.5631 3.60883 13.6282 3.75758 13.6346 3.92404C13.641 4.09049 13.5886 4.21658 13.5163 4.28883L8.21089 9.60133L7.30919 9.68349L7.38002 8.80162L12.684 3.49124ZM14.2232 2.76591C13.9137 2.45566 13.4887 2.31045 13.0899 2.30124C12.6911 2.29204 12.2526 2.41954 11.9318 2.74041L6.49035 8.18891C6.40123 8.27812 6.34674 8.39613 6.33664 8.52183L6.19923 10.2268C6.19302 10.304 6.20376 10.3816 6.23071 10.4542C6.25765 10.5268 6.30014 10.5926 6.35521 10.6471C6.41027 10.7016 6.47657 10.7433 6.54947 10.7695C6.62237 10.7956 6.70011 10.8055 6.77723 10.7984L8.49848 10.6426C8.62252 10.6311 8.7386 10.5765 8.82644 10.4882L14.2679 5.03966C14.5909 4.71666 14.712 4.27962 14.6964 3.88154C14.6831 3.46372 14.5144 3.0659 14.2232 2.76591ZM4.11673 3.36374C3.63576 3.36505 3.17486 3.55665 2.8347 3.89667C2.49454 4.2367 2.30276 4.69753 2.30127 5.17849V12.8816C2.30258 13.3627 2.49427 13.8237 2.83445 14.1639C3.17463 14.5041 3.63564 14.6958 4.11673 14.6971H11.8199C12.3008 14.6958 12.7617 14.5042 13.1019 14.1641C13.442 13.8241 13.6338 13.3633 13.6353 12.8823V9.03041C13.6353 8.88951 13.5793 8.75439 13.4797 8.65476C13.3801 8.55513 13.245 8.49916 13.1041 8.49916C12.9632 8.49916 12.828 8.55513 12.7284 8.65476C12.6288 8.75439 12.5728 8.88951 12.5728 9.03041V12.8823C12.5728 13.2946 12.2328 13.6346 11.8199 13.6346H4.11673C3.70377 13.6346 3.36377 13.2946 3.36377 12.8823V5.17849C3.36377 4.76624 3.70377 4.42624 4.11673 4.42624H7.96794C8.10883 4.42624 8.24396 4.37027 8.34359 4.27064C8.44322 4.17102 8.49919 4.03589 8.49919 3.89499C8.49919 3.7541 8.44322 3.61897 8.34359 3.51934C8.24396 3.41972 8.10883 3.36374 7.96794 3.36374H4.11673Z" fill="#979797"/>
</svg>
