<svg width="22" height="22" viewBox="0 0 22 22" fill="none" xmlns="http://www.w3.org/2000/svg">
<path d="M14.6527 2.40625C14.126 2.40625 13.5891 2.61044 13.1917 3.00781C12.9398 3.26375 12.7616 3.58299 12.6761 3.93181C12.5331 3.90225 12.3942 3.86719 12.2464 3.86719C11.7198 3.86719 11.1828 4.05006 10.7855 4.44744C10.4038 4.83352 10.1898 5.3545 10.1898 5.89738C10.1898 6.44025 10.4038 6.96123 10.7855 7.34731L11.365 7.92756L7.92753 11.3651L7.34728 10.7855C7.15906 10.5951 6.935 10.4439 6.68803 10.3405C6.44106 10.2371 6.17607 10.1837 5.90834 10.1833C5.38172 10.1833 4.84478 10.3874 4.44741 10.7855C4.20423 11.0331 4.02746 11.3381 3.93348 11.6722C3.83951 12.0063 3.83135 12.3587 3.90978 12.6968C3.57978 12.7834 3.26834 12.9305 3.00778 13.1917C2.62614 13.5778 2.41211 14.0988 2.41211 14.6417C2.41211 15.1846 2.62614 15.7055 3.00778 16.0916L3.02909 16.1136L3.95309 17.0589L3.48009 17.5312L4.46872 18.5199L4.94172 18.0469L5.90834 18.9922C6.29446 19.374 6.81559 19.5882 7.35862 19.5882C7.90166 19.5882 8.42279 19.374 8.80891 18.9922C9.05629 18.7412 9.234 18.4301 9.32453 18.0895C9.98453 18.2325 10.7043 18.0627 11.2152 17.5532C11.5972 17.1671 11.8115 16.6458 11.8115 16.1026C11.8115 15.5594 11.5972 15.0381 11.2152 14.652L10.6349 14.0724L14.0724 10.6349L14.652 11.2152C15.0381 11.5972 15.5594 11.8115 16.1026 11.8115C16.6458 11.8115 17.1671 11.5972 17.5532 11.2152C18.0606 10.7044 18.2325 9.98456 18.0895 9.32456C18.4307 9.23554 18.7422 9.05761 18.9922 8.80894C19.3742 8.42279 19.5885 7.90152 19.5885 7.35831C19.5885 6.81511 19.3742 6.29383 18.9922 5.90769L18.0468 4.94244L18.5198 4.46944L17.5312 3.48012L17.0582 3.95312L16.0916 3.00781C15.9033 2.81755 15.6792 2.66643 15.4323 2.56319C15.1853 2.45994 14.9203 2.4066 14.6527 2.40625ZM14.6527 3.78125C14.7403 3.7801 14.8273 3.79662 14.9085 3.82981C14.9896 3.863 15.0632 3.91218 15.125 3.97444L18.0255 6.875C18.0895 6.93599 18.1404 7.00933 18.1752 7.09057C18.21 7.17182 18.2279 7.25928 18.2279 7.34766C18.2279 7.43603 18.21 7.52349 18.1752 7.60474C18.1404 7.68598 18.0895 7.75932 18.0255 7.82031C17.9622 7.88423 17.8869 7.93497 17.8039 7.9696C17.7209 8.00423 17.6318 8.02206 17.5419 8.02206C17.4519 8.02206 17.3629 8.00423 17.2799 7.9696C17.1968 7.93497 17.1215 7.88423 17.0582 7.82031L14.1797 4.94106C14.1158 4.87779 14.0652 4.8025 14.0306 4.71955C13.9961 4.63659 13.9783 4.54762 13.9783 4.45775C13.9783 4.36788 13.9961 4.27891 14.0306 4.19595C14.0652 4.113 14.1158 4.03771 14.1797 3.97444C14.2415 3.9121 14.3152 3.86287 14.3965 3.82967C14.4777 3.79648 14.5649 3.78001 14.6527 3.78125ZM12.2464 5.22087C12.4183 5.22087 12.5847 5.30131 12.7187 5.43538L16.5646 9.28125C16.6284 9.34453 16.6791 9.41981 16.7136 9.50276C16.7482 9.58572 16.766 9.6747 16.766 9.76456C16.766 9.85443 16.7482 9.94341 16.7136 10.0264C16.6791 10.1093 16.6284 10.1846 16.5646 10.2479C16.2965 10.516 15.8908 10.4954 15.6193 10.2266H15.5973L11.7521 6.38069C11.484 6.11256 11.5046 5.70694 11.7734 5.43538C11.9047 5.30956 12.0793 5.22087 12.2464 5.22087ZM12.3323 8.89419L13.1058 9.66831L9.66828 13.1058L8.89416 12.3324L12.3323 8.89419ZM5.90834 11.5589C6.08022 11.5589 6.24659 11.6394 6.38066 11.7734H6.40197L10.2478 15.6193C10.516 15.8874 10.4953 16.2931 10.2265 16.5646C9.95841 16.819 9.54728 16.83 9.28122 16.5646L8.80822 16.0916L8.72297 16.0277L5.90834 13.1917L5.43534 12.7188C5.37153 12.6555 5.32088 12.5802 5.28631 12.4972C5.25174 12.4143 5.23395 12.3253 5.23395 12.2354C5.23395 12.1456 5.25174 12.0566 5.28631 11.9736C5.32088 11.8907 5.37153 11.8154 5.43534 11.7521C5.4971 11.6897 5.57081 11.6403 5.65209 11.607C5.73336 11.5737 5.82052 11.5578 5.90834 11.5589ZM4.44741 13.9652C4.61928 13.9652 4.80697 14.0456 4.94103 14.1797L7.82028 17.0589C7.88409 17.1222 7.93475 17.1975 7.96931 17.2805C8.00388 17.3634 8.02168 17.4524 8.02168 17.5423C8.02168 17.6321 8.00388 17.7211 7.96931 17.804C7.93475 17.887 7.88409 17.9623 7.82028 18.0256C7.55216 18.2937 7.14653 18.2937 6.87497 18.0256L3.97441 15.125C3.91045 15.064 3.85953 14.9907 3.82475 14.9094C3.78996 14.8282 3.77202 14.7407 3.77202 14.6523C3.77202 14.564 3.78996 14.4765 3.82475 14.3953C3.85953 14.314 3.91045 14.2407 3.97441 14.1797C4.10916 14.0456 4.27553 13.9652 4.44741 13.9652Z" fill="#6FBC89"/>
</svg>
