<svg width="22" height="22" viewBox="0 0 22 22" fill="none" xmlns="http://www.w3.org/2000/svg">
<path fill-rule="evenodd" clip-rule="evenodd" d="M10.9999 2.52148C6.3185 2.52148 2.52075 6.32657 2.52075 11.0245C2.52075 15.3897 5.8015 18.9857 10.0218 19.4716C10.4453 19.5201 10.8991 19.3432 11.2621 18.9793C11.4216 18.8195 11.5112 18.6029 11.5112 18.3771C11.5112 18.1512 11.4216 17.9346 11.2621 17.7748C10.9761 17.4888 10.6892 17.1057 10.5324 16.6721C10.372 16.2275 10.3317 15.6692 10.658 15.1504C10.9541 14.6802 11.3978 14.4281 11.8634 14.3052C12.3126 14.1879 12.8085 14.1806 13.2861 14.2099C13.7884 14.2466 14.2892 14.3014 14.7876 14.374C15.2982 14.44 15.7959 14.5014 16.2781 14.5243C17.2626 14.5711 18.0216 14.4473 18.5395 14.0238C19.0363 13.6177 19.4791 12.7946 19.4791 11.0245C19.4791 6.32657 15.6813 2.52148 10.9999 2.52148ZM1.14575 11.0245C1.14575 5.57032 5.55584 1.14648 10.9999 1.14648C16.444 1.14648 20.8541 5.57032 20.8541 11.0245C20.8541 12.9907 20.3618 14.3098 19.4103 15.0881C18.4808 15.848 17.2782 15.9488 16.2121 15.8975C15.6409 15.8637 15.0715 15.8056 14.5053 15.7233C14.0286 15.6619 13.5978 15.606 13.2036 15.5821C12.7755 15.5565 12.451 15.573 12.2136 15.6353C11.9936 15.6931 11.8873 15.7792 11.8222 15.8828C11.7864 15.9397 11.7617 16.0277 11.8258 16.2046C11.8937 16.3934 12.0422 16.6097 12.2356 16.8041C12.6521 17.2216 12.8859 17.7873 12.8859 18.3771C12.8859 18.9668 12.6521 19.5325 12.2356 19.9501C11.6398 20.5477 10.7873 20.9437 9.86417 20.8374C4.95542 20.2727 1.14575 16.0937 1.14575 11.0245ZM8.78617 5.72982C8.60383 5.72982 8.42896 5.80225 8.30003 5.93118C8.1711 6.06011 8.09867 6.23498 8.09867 6.41732C8.09867 6.59965 8.1711 6.77452 8.30003 6.90345C8.42896 7.03238 8.60383 7.10482 8.78617 7.10482C8.96851 7.10482 9.14337 7.03238 9.2723 6.90345C9.40124 6.77452 9.47367 6.59965 9.47367 6.41732C9.47367 6.23498 9.40124 6.06011 9.2723 5.93118C9.14337 5.80225 8.96851 5.72982 8.78617 5.72982ZM6.72367 6.41732C6.72367 5.87031 6.94097 5.3457 7.32776 4.95891C7.71456 4.57212 8.23916 4.35482 8.78617 4.35482C9.33318 4.35482 9.85778 4.57212 10.2446 4.95891C10.6314 5.3457 10.8487 5.87031 10.8487 6.41732C10.8487 6.96433 10.6314 7.48893 10.2446 7.87572C9.85778 8.26252 9.33318 8.47982 8.78617 8.47982C8.23916 8.47982 7.71456 8.26252 7.32776 7.87572C6.94097 7.48893 6.72367 6.96433 6.72367 6.41732ZM13.2916 5.72982C13.1092 5.72982 12.9344 5.80225 12.8054 5.93118C12.6765 6.06011 12.6041 6.23498 12.6041 6.41732C12.6041 6.59965 12.6765 6.77452 12.8054 6.90345C12.9344 7.03238 13.1092 7.10482 13.2916 7.10482C13.4739 7.10482 13.6488 7.03238 13.7777 6.90345C13.9067 6.77452 13.9791 6.59965 13.9791 6.41732C13.9791 6.23498 13.9067 6.06011 13.7777 5.93118C13.6488 5.80225 13.4739 5.72982 13.2916 5.72982ZM11.2291 6.41732C11.2291 5.87031 11.4464 5.3457 11.8332 4.95891C12.22 4.57212 12.7446 4.35482 13.2916 4.35482C13.8386 4.35482 14.3632 4.57212 14.75 4.95891C15.1368 5.3457 15.3541 5.87031 15.3541 6.41732C15.3541 6.96433 15.1368 7.48893 14.75 7.87572C14.3632 8.26252 13.8386 8.47982 13.2916 8.47982C12.7446 8.47982 12.22 8.26252 11.8332 7.87572C11.4464 7.48893 11.2291 6.96433 11.2291 6.41732ZM5.95825 9.85482C5.77592 9.85482 5.60105 9.92725 5.47212 10.0562C5.34318 10.1851 5.27075 10.36 5.27075 10.5423C5.27075 10.7247 5.34318 10.8995 5.47212 11.0285C5.60105 11.1574 5.77592 11.2298 5.95825 11.2298C6.14059 11.2298 6.31546 11.1574 6.44439 11.0285C6.57332 10.8995 6.64575 10.7247 6.64575 10.5423C6.64575 10.36 6.57332 10.1851 6.44439 10.0562C6.31546 9.92725 6.14059 9.85482 5.95825 9.85482ZM3.89575 10.5423C3.89575 9.99531 4.11305 9.4707 4.49984 9.08391C4.88664 8.69712 5.41124 8.47982 5.95825 8.47982C6.50526 8.47982 7.02987 8.69712 7.41666 9.08391C7.80345 9.4707 8.02075 9.99531 8.02075 10.5423C8.02075 11.0893 7.80345 11.6139 7.41666 12.0007C7.02987 12.3875 6.50526 12.6048 5.95825 12.6048C5.41124 12.6048 4.88664 12.3875 4.49984 12.0007C4.11305 11.6139 3.89575 11.0893 3.89575 10.5423ZM16.0416 9.85482C15.8592 9.85482 15.6844 9.92725 15.5554 10.0562C15.4265 10.1851 15.3541 10.36 15.3541 10.5423C15.3541 10.7247 15.4265 10.8995 15.5554 11.0285C15.6844 11.1574 15.8592 11.2298 16.0416 11.2298C16.2239 11.2298 16.3988 11.1574 16.5277 11.0285C16.6567 10.8995 16.7291 10.7247 16.7291 10.5423C16.7291 10.36 16.6567 10.1851 16.5277 10.0562C16.3988 9.92725 16.2239 9.85482 16.0416 9.85482ZM13.9791 10.5423C13.9791 10.2715 14.0324 10.0033 14.1361 9.75303C14.2397 9.5028 14.3917 9.27543 14.5832 9.08391C14.7747 8.89239 15.0021 8.74047 15.2523 8.63682C15.5025 8.53317 15.7707 8.47982 16.0416 8.47982C16.3124 8.47982 16.5806 8.53317 16.8309 8.63682C17.0811 8.74047 17.3085 8.89239 17.5 9.08391C17.6915 9.27543 17.8434 9.5028 17.9471 9.75303C18.0507 10.0033 18.1041 10.2715 18.1041 10.5423C18.1041 11.0893 17.8868 11.6139 17.5 12.0007C17.1132 12.3875 16.5886 12.6048 16.0416 12.6048C15.4946 12.6048 14.97 12.3875 14.5832 12.0007C14.1964 11.6139 13.9791 11.0893 13.9791 10.5423Z" fill="#6FBC89"/>
</svg>
