<svg width="13" height="13" viewBox="0 0 13 13" fill="none" xmlns="http://www.w3.org/2000/svg">
<g clip-path="url(#clip0_398_649)">
<path d="M6.49992 1.08398C9.49154 1.08398 11.9166 3.50903 11.9166 6.50065C11.9166 9.49228 9.49154 11.9173 6.49992 11.9173C3.50829 11.9173 1.08325 9.49228 1.08325 6.50065C1.08325 3.50903 3.50829 1.08398 6.49992 1.08398ZM6.49992 2.16732C5.35065 2.16732 4.24845 2.62386 3.43579 3.43652C2.62313 4.24918 2.16659 5.35138 2.16659 6.50065C2.16659 7.64992 2.62313 8.75212 3.43579 9.56478C4.24845 10.3774 5.35065 10.834 6.49992 10.834C7.64919 10.834 8.75139 10.3774 9.56405 9.56478C10.3767 8.75212 10.8333 7.64992 10.8333 6.50065C10.8333 5.35138 10.3767 4.24918 9.56405 3.43652C8.75139 2.62386 7.64919 2.16732 6.49992 2.16732ZM6.49992 8.12565C6.64358 8.12565 6.78135 8.18272 6.88294 8.2843C6.98452 8.38588 7.04159 8.52366 7.04159 8.66732C7.04159 8.81098 6.98452 8.94875 6.88294 9.05033C6.78135 9.15192 6.64358 9.20898 6.49992 9.20898C6.35626 9.20898 6.21848 9.15192 6.1169 9.05033C6.01532 8.94875 5.95825 8.81098 5.95825 8.66732C5.95825 8.52366 6.01532 8.38588 6.1169 8.2843C6.21848 8.18272 6.35626 8.12565 6.49992 8.12565ZM6.49992 3.25065C6.64358 3.25065 6.78135 3.30772 6.88294 3.4093C6.98452 3.51088 7.04159 3.64866 7.04159 3.79232V7.04232C7.04159 7.18598 6.98452 7.32375 6.88294 7.42533C6.78135 7.52692 6.64358 7.58398 6.49992 7.58398C6.35626 7.58398 6.21848 7.52692 6.1169 7.42533C6.01532 7.32375 5.95825 7.18598 5.95825 7.04232V3.79232C5.95825 3.64866 6.01532 3.51088 6.1169 3.4093C6.21848 3.30772 6.35626 3.25065 6.49992 3.25065Z" fill="#E2725B"/>
</g>
<defs>
<clipPath id="clip0_398_649">
<rect width="13" height="13" fill="white"/>
</clipPath>
</defs>
</svg>
