<svg width="22" height="22" viewBox="0 0 22 22" fill="none" xmlns="http://www.w3.org/2000/svg">
<path d="M3.20837 3.66602V15.1243C3.20837 16.0968 3.59468 17.0294 4.28232 17.7171C4.96995 18.4047 5.90258 18.791 6.87504 18.791H18.3334" stroke="white" stroke-width="1.5" stroke-linecap="round" stroke-linejoin="round"/>
<path d="M6.41675 12.832L9.43533 9.81345C9.60723 9.6416 9.84035 9.54506 10.0834 9.54506C10.3265 9.54506 10.5596 9.6416 10.7315 9.81345L11.9562 11.0381C12.1281 11.21 12.3612 11.3065 12.6042 11.3065C12.8473 11.3065 13.0804 11.21 13.2523 11.0381L17.4167 6.8737L18.0107 6.27878M18.0107 6.27878C17.8118 6.07986 17.5368 5.95703 17.2334 5.95703H13.7501M18.0107 6.27878C18.2106 6.47861 18.3334 6.75361 18.3334 7.05703V10.5404" stroke="white" stroke-width="1.5" stroke-linecap="round" stroke-linejoin="round"/>
</svg>
