<svg width="20" height="20" viewBox="0 0 20 20" fill="none" xmlns="http://www.w3.org/2000/svg">
<path id="Vector" fill-rule="evenodd" clip-rule="evenodd" d="M10 1.52148C5.31862 1.52148 1.52087 5.32657 1.52087 10.0245C1.52087 14.3897 4.80162 17.9857 9.02196 18.4716C9.44546 18.5201 9.89921 18.3432 10.2622 17.9793C10.4217 17.8195 10.5113 17.6029 10.5113 17.3771C10.5113 17.1512 10.4217 16.9346 10.2622 16.7748C9.97621 16.4888 9.68929 16.1057 9.53254 15.6721C9.37212 15.2275 9.33179 14.6692 9.65812 14.1504C9.95421 13.6802 10.3979 13.4281 10.8635 13.3052C11.3127 13.1879 11.8086 13.1806 12.2862 13.2099C12.7885 13.2466 13.2893 13.3014 13.7877 13.374C14.2983 13.44 14.796 13.5014 15.2782 13.5243C16.2627 13.5711 17.0217 13.4473 17.5396 13.0238C18.0365 12.6177 18.4792 11.7946 18.4792 10.0245C18.4792 5.32657 14.6815 1.52148 10 1.52148ZM0.145874 10.0245C0.145874 4.57032 4.55596 0.146484 10 0.146484C15.4441 0.146484 19.8542 4.57032 19.8542 10.0245C19.8542 11.9907 19.362 13.3098 18.4105 14.0881C17.481 14.848 16.2783 14.9488 15.2122 14.8975C14.6411 14.8637 14.0716 14.8056 13.5054 14.7233C13.0287 14.6619 12.5979 14.606 12.2037 14.5821C11.7756 14.5565 11.4511 14.573 11.2137 14.6353C10.9937 14.6931 10.8874 14.7792 10.8223 14.8828C10.7865 14.9397 10.7618 15.0277 10.826 15.2046C10.8938 15.3934 11.0423 15.6097 11.2357 15.8041C11.6522 16.2216 11.886 16.7873 11.886 17.3771C11.886 17.9668 11.6522 18.5325 11.2357 18.9501C10.6399 19.5477 9.78737 19.9437 8.86429 19.8374C3.95554 19.2727 0.145874 15.0937 0.145874 10.0245ZM7.78629 4.72982C7.60395 4.72982 7.42909 4.80225 7.30016 4.93118C7.17122 5.06011 7.09879 5.23498 7.09879 5.41732C7.09879 5.59965 7.17122 5.77452 7.30016 5.90345C7.42909 6.03238 7.60395 6.10482 7.78629 6.10482C7.96863 6.10482 8.1435 6.03238 8.27243 5.90345C8.40136 5.77452 8.47379 5.59965 8.47379 5.41732C8.47379 5.23498 8.40136 5.06011 8.27243 4.93118C8.1435 4.80225 7.96863 4.72982 7.78629 4.72982ZM5.72379 5.41732C5.72379 4.87031 5.94109 4.3457 6.32788 3.95891C6.71468 3.57212 7.23928 3.35482 7.78629 3.35482C8.3333 3.35482 8.8579 3.57212 9.2447 3.95891C9.63149 4.3457 9.84879 4.87031 9.84879 5.41732C9.84879 5.96433 9.63149 6.48893 9.2447 6.87572C8.8579 7.26252 8.3333 7.47982 7.78629 7.47982C7.23928 7.47982 6.71468 7.26252 6.32788 6.87572C5.94109 6.48893 5.72379 5.96433 5.72379 5.41732ZM12.2917 4.72982C12.1094 4.72982 11.9345 4.80225 11.8056 4.93118C11.6766 5.06011 11.6042 5.23498 11.6042 5.41732C11.6042 5.59965 11.6766 5.77452 11.8056 5.90345C11.9345 6.03238 12.1094 6.10482 12.2917 6.10482C12.474 6.10482 12.6489 6.03238 12.7778 5.90345C12.9068 5.77452 12.9792 5.59965 12.9792 5.41732C12.9792 5.23498 12.9068 5.06011 12.7778 4.93118C12.6489 4.80225 12.474 4.72982 12.2917 4.72982ZM10.2292 5.41732C10.2292 4.87031 10.4465 4.3457 10.8333 3.95891C11.2201 3.57212 11.7447 3.35482 12.2917 3.35482C12.8387 3.35482 13.3633 3.57212 13.7501 3.95891C14.1369 4.3457 14.3542 4.87031 14.3542 5.41732C14.3542 5.96433 14.1369 6.48893 13.7501 6.87572C13.3633 7.26252 12.8387 7.47982 12.2917 7.47982C11.7447 7.47982 11.2201 7.26252 10.8333 6.87572C10.4465 6.48893 10.2292 5.96433 10.2292 5.41732ZM4.95837 8.85482C4.77604 8.85482 4.60117 8.92725 4.47224 9.05618C4.34331 9.18511 4.27087 9.35998 4.27087 9.54232C4.27087 9.72465 4.34331 9.89952 4.47224 10.0285C4.60117 10.1574 4.77604 10.2298 4.95837 10.2298C5.14071 10.2298 5.31558 10.1574 5.44451 10.0285C5.57344 9.89952 5.64587 9.72465 5.64587 9.54232C5.64587 9.35998 5.57344 9.18511 5.44451 9.05618C5.31558 8.92725 5.14071 8.85482 4.95837 8.85482ZM2.89587 9.54232C2.89587 8.99531 3.11317 8.4707 3.49997 8.08391C3.88676 7.69712 4.41137 7.47982 4.95837 7.47982C5.50538 7.47982 6.02999 7.69712 6.41678 8.08391C6.80358 8.4707 7.02087 8.99531 7.02087 9.54232C7.02087 10.0893 6.80358 10.6139 6.41678 11.0007C6.02999 11.3875 5.50538 11.6048 4.95837 11.6048C4.41137 11.6048 3.88676 11.3875 3.49997 11.0007C3.11317 10.6139 2.89587 10.0893 2.89587 9.54232ZM15.0417 8.85482C14.8594 8.85482 14.6845 8.92725 14.5556 9.05618C14.4266 9.18511 14.3542 9.35998 14.3542 9.54232C14.3542 9.72465 14.4266 9.89952 14.5556 10.0285C14.6845 10.1574 14.8594 10.2298 15.0417 10.2298C15.224 10.2298 15.3989 10.1574 15.5278 10.0285C15.6568 9.89952 15.7292 9.72465 15.7292 9.54232C15.7292 9.35998 15.6568 9.18511 15.5278 9.05618C15.3989 8.92725 15.224 8.85482 15.0417 8.85482ZM12.9792 9.54232C12.9792 9.27147 13.0326 9.00327 13.1362 8.75303C13.2399 8.5028 13.3918 8.27543 13.5833 8.08391C13.7748 7.89239 14.0022 7.74047 14.2524 7.63682C14.5027 7.53317 14.7709 7.47982 15.0417 7.47982C15.3126 7.47982 15.5808 7.53317 15.831 7.63682C16.0812 7.74047 16.3086 7.89239 16.5001 8.08391C16.6916 8.27543 16.8436 8.5028 16.9472 8.75303C17.0509 9.00327 17.1042 9.27147 17.1042 9.54232C17.1042 10.0893 16.8869 10.6139 16.5001 11.0007C16.1133 11.3875 15.5887 11.6048 15.0417 11.6048C14.4947 11.6048 13.9701 11.3875 13.5833 11.0007C13.1965 10.6139 12.9792 10.0893 12.9792 9.54232Z" fill="white"/>
</svg>
