<svg width="22" height="22" viewBox="0 0 22 22" fill="none" xmlns="http://www.w3.org/2000/svg">
<path d="M9.28125 2.75C8.46163 2.7529 7.6764 3.07978 7.09684 3.65934C6.51728 4.2389 6.1904 5.02413 6.1875 5.84375C6.1875 6.39375 6.34356 6.90456 6.59587 7.348C5.35769 8.07262 4.38831 9.10113 3.86719 10.3125H3.78125C3.73585 10.3134 3.69073 10.3052 3.6486 10.2882C3.60647 10.2713 3.56821 10.246 3.5361 10.2139C3.50399 10.1818 3.4787 10.1435 3.46176 10.1014C3.44482 10.0593 3.43656 10.0141 3.4375 9.96875C3.4375 9.84775 3.49937 9.7515 3.58806 9.68962L2.79262 8.57244C2.56758 8.72928 2.3837 8.93811 2.25659 9.18119C2.12948 9.42428 2.0629 9.69444 2.0625 9.96875C2.0625 10.8144 2.69362 11.5074 3.50212 11.6449C3.46706 11.8855 3.4375 12.1254 3.4375 12.375C3.4375 14.0883 4.34775 15.5732 5.67188 16.6719C5.5055 17.3594 5.58869 18.0922 6.12288 18.6271C6.51726 19.0181 7.05012 19.2375 7.60547 19.2375C8.16082 19.2375 8.69368 19.0181 9.08806 18.6271L9.34587 18.3693C9.88281 18.4683 10.4225 18.5625 11 18.5625C11.5775 18.5625 12.1172 18.4683 12.6541 18.3693L12.9119 18.6271C13.3063 19.0181 13.8392 19.2375 14.3945 19.2375C14.9499 19.2375 15.4827 19.0181 15.8771 18.6271C16.4003 18.1032 16.4787 17.3917 16.3281 16.7145C16.8795 16.2668 17.3515 15.7295 17.7244 15.125H19.25V9.625H17.6818C17.432 9.21995 17.1362 8.84507 16.8004 8.50781L17.1875 6.38069V5.5H16.5C16.5 5.5 14.8486 5.5275 13.4489 6.57456C13.0812 6.46903 12.7083 6.38275 12.3317 6.31606C12.3596 6.16298 12.3741 6.00554 12.375 5.84375C12.375 4.14356 10.9814 2.75 9.28125 2.75ZM9.28125 4.125C10.2369 4.125 11 4.88812 11 5.84375C11 5.962 10.9787 6.07475 10.9567 6.1875C9.84775 6.193 8.80069 6.4075 7.84231 6.76775C7.659 6.49454 7.56156 6.17276 7.5625 5.84375C7.5625 4.88812 8.32562 4.125 9.28125 4.125ZM15.6406 7.00425C15.6516 7.0015 15.6516 7.00631 15.6619 7.00425L15.4041 8.57175L15.3402 8.9375L15.6406 9.19531C16.0992 9.59337 16.4782 10.0746 16.7578 10.6136L16.951 11H17.875V13.75H16.951L16.7578 14.1371C16.4223 14.7998 15.8929 15.3828 15.2109 15.8764L14.7166 16.2422L15.0177 16.8011C15.1814 17.0775 15.1518 17.4185 14.9098 17.6605C14.8446 17.7285 14.7662 17.7827 14.6795 17.8197C14.5928 17.8567 14.4995 17.8757 14.4052 17.8757C14.3109 17.8757 14.2176 17.8567 14.1309 17.8197C14.0442 17.7827 13.9658 17.7285 13.9006 17.6605L13.4062 17.1655L13.1271 16.9084L12.7614 16.9943C12.2031 17.1229 11.6098 17.1875 11 17.1875C10.4073 17.1894 9.81619 17.1246 9.23794 16.9943L8.87356 16.9084L8.59375 17.1662L8.09944 17.6598C8.03417 17.728 7.95578 17.7822 7.869 17.8192C7.78222 17.8563 7.68883 17.8754 7.59447 17.8754C7.50011 17.8754 7.40672 17.8563 7.31994 17.8192C7.23315 17.7822 7.15477 17.728 7.0895 17.6598C6.97635 17.5502 6.90403 17.4053 6.88452 17.249C6.86502 17.0927 6.8995 16.9345 6.98225 16.8004L7.28337 16.2422L6.78906 15.8771C5.54537 14.9738 4.8125 13.7417 4.8125 12.375C4.8125 9.80237 7.50062 7.5625 11 7.5625C11.8456 7.5625 12.6514 7.689 13.3849 7.92756L13.75 8.05681L14.0511 7.799C14.542 7.36106 15.1491 7.12525 15.6406 7.00425ZM15.125 11C14.7469 11 14.4375 11.3094 14.4375 11.6875C14.4375 12.0656 14.7469 12.375 15.125 12.375C15.5031 12.375 15.8125 12.0656 15.8125 11.6875C15.8125 11.3094 15.5031 11 15.125 11Z" fill="white"/>
</svg>
