<svg width="22" height="22" viewBox="0 0 22 22" fill="none" xmlns="http://www.w3.org/2000/svg">
<path d="M11 2.0625C9.86906 2.0625 8.9375 2.99406 8.9375 4.125V9.174L3.15837 11.7521L2.75 11.924V15.2103L3.52344 15.125L8.9375 14.5234V15.7912L7.17544 16.9716L6.875 17.1641V20.0881L7.69175 19.9162L11 19.25L14.3089 19.9169L15.125 20.0887V17.1669L14.8239 16.973L13.0625 15.7905V14.5234L18.4766 15.125L19.25 15.2109V11.9247L18.8416 11.7528L13.0625 9.174V4.125C13.0625 2.99406 12.1309 2.0625 11 2.0625ZM11 3.4375C11.3884 3.4375 11.6875 3.73656 11.6875 4.125V10.076L12.0959 10.2479L17.875 12.826V13.6647L12.4609 13.0625L11.6875 12.9766V16.5426L11.9886 16.7365L13.75 17.9176V18.4126L11.1286 17.897L11 17.8544L10.8708 17.8956L8.25 18.4113V17.9162L10.0121 16.7358L10.3125 16.5419V12.9766L9.53906 13.0625L4.125 13.6641V12.8253L9.90413 10.2472L10.3125 10.0753V4.125C10.3125 3.73656 10.6116 3.4375 11 3.4375Z" fill="white"/>
</svg>
