<svg width="22" height="22" viewBox="0 0 22 22" fill="none" xmlns="http://www.w3.org/2000/svg">
<path d="M11.6875 2.0625C10.1681 2.0625 8.9375 3.29312 8.9375 4.8125H4.8125V8.25C3.29312 8.25 2.0625 9.48063 2.0625 11C2.0625 12.5194 3.29312 13.75 4.8125 13.75V17.1875H8.9375C8.9375 18.7069 10.1681 19.9375 11.6875 19.9375C13.2069 19.9375 14.4375 18.7069 14.4375 17.1875H18.5625V12.375H17.1875C16.3694 12.375 15.8125 11.8181 15.8125 11C15.8125 10.1819 16.3694 9.625 17.1875 9.625H18.5625V4.8125H14.4375C14.4375 3.29312 13.2069 2.0625 11.6875 2.0625ZM11.6875 3.4375C12.5056 3.4375 13.0625 3.99437 13.0625 4.8125V6.1875H17.1875V8.25C15.6681 8.25 14.4375 9.48063 14.4375 11C14.4375 12.5194 15.6681 13.75 17.1875 13.75V15.8125H13.0625V17.1875C13.0625 18.0056 12.5056 18.5625 11.6875 18.5625C10.8694 18.5625 10.3125 18.0056 10.3125 17.1875V15.8125H6.1875V12.375H4.8125C3.99437 12.375 3.4375 11.8181 3.4375 11C3.4375 10.1819 3.99437 9.625 4.8125 9.625H6.1875V6.1875H10.3125V4.8125C10.3125 3.99437 10.8694 3.4375 11.6875 3.4375Z" fill="#7A7A7A"/>
</svg>
