<svg width="22" height="22" viewBox="0 0 22 22" fill="none" xmlns="http://www.w3.org/2000/svg">
<path fill-rule="evenodd" clip-rule="evenodd" d="M11 2.52148C6.31862 2.52148 2.52087 6.32657 2.52087 11.0245C2.52087 15.3897 5.80162 18.9857 10.022 19.4716C10.4455 19.5201 10.8992 19.3432 11.2622 18.9793C11.4217 18.8195 11.5113 18.6029 11.5113 18.3771C11.5113 18.1512 11.4217 17.9346 11.2622 17.7748C10.9762 17.4888 10.6893 17.1057 10.5325 16.6721C10.3721 16.2275 10.3318 15.6692 10.6581 15.1504C10.9542 14.6802 11.3979 14.4281 11.8635 14.3052C12.3127 14.1879 12.8086 14.1806 13.2862 14.2099C13.7885 14.2466 14.2893 14.3014 14.7877 14.374C15.2983 14.44 15.796 14.5014 16.2782 14.5243C17.2627 14.5711 18.0217 14.4473 18.5396 14.0238C19.0365 13.6177 19.4792 12.7946 19.4792 11.0245C19.4792 6.32657 15.6815 2.52148 11 2.52148ZM1.14587 11.0245C1.14587 5.57032 5.55596 1.14648 11 1.14648C16.4441 1.14648 20.8542 5.57032 20.8542 11.0245C20.8542 12.9907 20.362 14.3098 19.4105 15.0881C18.481 15.848 17.2783 15.9488 16.2122 15.8975C15.6411 15.8637 15.0716 15.8056 14.5054 15.7233C14.0287 15.6619 13.5979 15.606 13.2037 15.5821C12.7756 15.5565 12.4511 15.573 12.2137 15.6353C11.9937 15.6931 11.8874 15.7792 11.8223 15.8828C11.7865 15.9397 11.7618 16.0277 11.826 16.2046C11.8938 16.3934 12.0423 16.6097 12.2357 16.8041C12.6522 17.2216 12.886 17.7873 12.886 18.3771C12.886 18.9668 12.6522 19.5325 12.2357 19.9501C11.6399 20.5477 10.7874 20.9437 9.86429 20.8374C4.95554 20.2727 1.14587 16.0937 1.14587 11.0245ZM8.78629 5.72982C8.60395 5.72982 8.42909 5.80225 8.30016 5.93118C8.17122 6.06011 8.09879 6.23498 8.09879 6.41732C8.09879 6.59965 8.17122 6.77452 8.30016 6.90345C8.42909 7.03238 8.60395 7.10482 8.78629 7.10482C8.96863 7.10482 9.1435 7.03238 9.27243 6.90345C9.40136 6.77452 9.47379 6.59965 9.47379 6.41732C9.47379 6.23498 9.40136 6.06011 9.27243 5.93118C9.1435 5.80225 8.96863 5.72982 8.78629 5.72982ZM6.72379 6.41732C6.72379 5.87031 6.94109 5.3457 7.32788 4.95891C7.71468 4.57212 8.23928 4.35482 8.78629 4.35482C9.3333 4.35482 9.8579 4.57212 10.2447 4.95891C10.6315 5.3457 10.8488 5.87031 10.8488 6.41732C10.8488 6.96433 10.6315 7.48893 10.2447 7.87572C9.8579 8.26252 9.3333 8.47982 8.78629 8.47982C8.23928 8.47982 7.71468 8.26252 7.32788 7.87572C6.94109 7.48893 6.72379 6.96433 6.72379 6.41732ZM13.2917 5.72982C13.1094 5.72982 12.9345 5.80225 12.8056 5.93118C12.6766 6.06011 12.6042 6.23498 12.6042 6.41732C12.6042 6.59965 12.6766 6.77452 12.8056 6.90345C12.9345 7.03238 13.1094 7.10482 13.2917 7.10482C13.474 7.10482 13.6489 7.03238 13.7778 6.90345C13.9068 6.77452 13.9792 6.59965 13.9792 6.41732C13.9792 6.23498 13.9068 6.06011 13.7778 5.93118C13.6489 5.80225 13.474 5.72982 13.2917 5.72982ZM11.2292 6.41732C11.2292 5.87031 11.4465 5.3457 11.8333 4.95891C12.2201 4.57212 12.7447 4.35482 13.2917 4.35482C13.8387 4.35482 14.3633 4.57212 14.7501 4.95891C15.1369 5.3457 15.3542 5.87031 15.3542 6.41732C15.3542 6.96433 15.1369 7.48893 14.7501 7.87572C14.3633 8.26252 13.8387 8.47982 13.2917 8.47982C12.7447 8.47982 12.2201 8.26252 11.8333 7.87572C11.4465 7.48893 11.2292 6.96433 11.2292 6.41732ZM5.95837 9.85482C5.77604 9.85482 5.60117 9.92725 5.47224 10.0562C5.34331 10.1851 5.27087 10.36 5.27087 10.5423C5.27087 10.7247 5.34331 10.8995 5.47224 11.0285C5.60117 11.1574 5.77604 11.2298 5.95837 11.2298C6.14071 11.2298 6.31558 11.1574 6.44451 11.0285C6.57344 10.8995 6.64587 10.7247 6.64587 10.5423C6.64587 10.36 6.57344 10.1851 6.44451 10.0562C6.31558 9.92725 6.14071 9.85482 5.95837 9.85482ZM3.89587 10.5423C3.89587 9.99531 4.11317 9.4707 4.49997 9.08391C4.88676 8.69712 5.41137 8.47982 5.95837 8.47982C6.50538 8.47982 7.02999 8.69712 7.41678 9.08391C7.80358 9.4707 8.02087 9.99531 8.02087 10.5423C8.02087 11.0893 7.80358 11.6139 7.41678 12.0007C7.02999 12.3875 6.50538 12.6048 5.95837 12.6048C5.41137 12.6048 4.88676 12.3875 4.49997 12.0007C4.11317 11.6139 3.89587 11.0893 3.89587 10.5423ZM16.0417 9.85482C15.8594 9.85482 15.6845 9.92725 15.5556 10.0562C15.4266 10.1851 15.3542 10.36 15.3542 10.5423C15.3542 10.7247 15.4266 10.8995 15.5556 11.0285C15.6845 11.1574 15.8594 11.2298 16.0417 11.2298C16.224 11.2298 16.3989 11.1574 16.5278 11.0285C16.6568 10.8995 16.7292 10.7247 16.7292 10.5423C16.7292 10.36 16.6568 10.1851 16.5278 10.0562C16.3989 9.92725 16.224 9.85482 16.0417 9.85482ZM13.9792 10.5423C13.9792 10.2715 14.0326 10.0033 14.1362 9.75303C14.2399 9.5028 14.3918 9.27543 14.5833 9.08391C14.7748 8.89239 15.0022 8.74047 15.2524 8.63682C15.5027 8.53317 15.7709 8.47982 16.0417 8.47982C16.3126 8.47982 16.5808 8.53317 16.831 8.63682C17.0812 8.74047 17.3086 8.89239 17.5001 9.08391C17.6916 9.27543 17.8436 9.5028 17.9472 9.75303C18.0509 10.0033 18.1042 10.2715 18.1042 10.5423C18.1042 11.0893 17.8869 11.6139 17.5001 12.0007C17.1133 12.3875 16.5887 12.6048 16.0417 12.6048C15.4947 12.6048 14.9701 12.3875 14.5833 12.0007C14.1965 11.6139 13.9792 11.0893 13.9792 10.5423Z" fill="#7A7A7A"/>
</svg>
