<svg width="22" height="22" viewBox="0 0 22 22" fill="none" xmlns="http://www.w3.org/2000/svg">
<path d="M6.1875 4.8125C3.91875 4.8125 2.0625 6.66875 2.0625 8.9375C2.0625 10.3015 2.73419 11.5156 3.75994 12.2677C1.947 13.167 0.6875 15.0315 0.6875 17.1875H2.0625C2.0625 14.9023 3.90225 13.0625 6.1875 13.0625C8.47275 13.0625 10.3125 14.9023 10.3125 17.1875H11.6875C11.6875 14.9023 13.5273 13.0625 15.8125 13.0625C18.0977 13.0625 19.9375 14.9023 19.9375 17.1875H21.3125C21.3125 15.0308 20.053 13.167 18.2401 12.2677C18.7652 11.8855 19.1927 11.3846 19.4876 10.8059C19.7826 10.2272 19.9367 9.58704 19.9375 8.9375C19.9375 6.66875 18.0812 4.8125 15.8125 4.8125C13.5437 4.8125 11.6875 6.66875 11.6875 8.9375C11.6875 10.3015 12.3592 11.5156 13.3849 12.2677C12.3804 12.7615 11.5489 13.5479 11 14.5234C10.4511 13.5479 9.61962 12.7615 8.61506 12.2677C9.14021 11.8855 9.56767 11.3846 9.86264 10.8059C10.1576 10.2272 10.3117 9.58704 10.3125 8.9375C10.3125 6.66875 8.45625 4.8125 6.1875 4.8125ZM6.1875 6.1875C7.71581 6.1875 8.9375 7.40919 8.9375 8.9375C8.9375 10.4658 7.71581 11.6875 6.1875 11.6875C4.65919 11.6875 3.4375 10.4658 3.4375 8.9375C3.4375 7.40919 4.65919 6.1875 6.1875 6.1875ZM15.8125 6.1875C17.3408 6.1875 18.5625 7.40919 18.5625 8.9375C18.5625 10.4658 17.3408 11.6875 15.8125 11.6875C14.2842 11.6875 13.0625 10.4658 13.0625 8.9375C13.0625 7.40919 14.2842 6.1875 15.8125 6.1875Z" fill="#7A7A7A"/>
</svg>
