<svg width="22" height="22" viewBox="0 0 22 22" fill="none" xmlns="http://www.w3.org/2000/svg">
<path d="M10.9999 18.0083C9.7615 17.1365 8.32784 16.581 6.8245 16.394C5.75828 16.1774 4.672 16.0751 3.58409 16.0888C3.44488 16.09 3.30681 16.0636 3.17786 16.0112C3.0489 15.9587 2.93161 15.8813 2.83274 15.7833C2.73388 15.6853 2.65541 15.5686 2.60186 15.4402C2.54831 15.3117 2.52075 15.1738 2.52075 15.0346L2.54 5.04936C2.53942 4.78144 2.64087 4.52335 2.82373 4.32754C3.0066 4.13173 3.25717 4.0129 3.5245 3.99519C4.63197 3.97318 5.73852 4.07215 6.8245 4.29036C8.32621 4.4841 9.75875 5.03825 10.9999 5.90553M10.9999 18.0083V5.90553M10.9999 18.0083C12.2383 17.1365 13.672 16.581 15.1753 16.394C16.2416 16.1774 17.3278 16.0751 18.4158 16.0888C18.555 16.09 18.693 16.0636 18.822 16.0112C18.9509 15.9587 19.0682 15.8813 19.1671 15.7833C19.266 15.6853 19.3444 15.5686 19.398 15.4402C19.4515 15.3117 19.4791 15.1738 19.4791 15.0346L19.4589 5.04936C19.4595 4.78159 19.3582 4.52362 19.1755 4.32784C18.9928 4.13205 18.7425 4.01312 18.4753 3.99519C17.3679 3.97318 16.2613 4.07215 15.1753 4.29036C13.6736 4.4841 12.2411 5.03825 10.9999 5.90553" stroke="#7A7A7A" stroke-width="1.5" stroke-linecap="round" stroke-linejoin="round"/>
</svg>
