<svg width="22" height="22" viewBox="0 0 22 22" fill="none" xmlns="http://www.w3.org/2000/svg">
<path d="M3.20825 3.66602V15.1243C3.20825 16.0968 3.59456 17.0294 4.28219 17.7171C4.96983 18.4047 5.90246 18.791 6.87492 18.791H18.3333" stroke="#7A7A7A" stroke-width="1.5" stroke-linecap="round" stroke-linejoin="round"/>
<path d="M6.4165 12.832L9.43509 9.81345C9.60699 9.6416 9.8401 9.54506 10.0832 9.54506C10.3262 9.54506 10.5594 9.6416 10.7313 9.81345L11.9559 11.0381C12.1278 11.21 12.3609 11.3065 12.604 11.3065C12.8471 11.3065 13.0802 11.21 13.2521 11.0381L17.4165 6.8737L18.0105 6.27878M18.0105 6.27878C17.8116 6.07986 17.5366 5.95703 17.2332 5.95703H13.7498M18.0105 6.27878C18.2103 6.47861 18.3332 6.75361 18.3332 7.05703V10.5404" stroke="#7A7A7A" stroke-width="1.5" stroke-linecap="round" stroke-linejoin="round"/>
</svg>
